<svg width="48" height="48" viewBox="0 0 48 48" fill="none" xmlns="http://www.w3.org/2000/svg">
  <mask id="mask0" mask-type="alpha" maskUnits="userSpaceOnUse" x="0" y="0" width="48" height="48">
    <circle cx="24" cy="24" r="24" fill="#C4C4C4"/>
  </mask>
  <g mask="url(#mask0)">
    <circle cx="24" cy="24" r="24" fill="url(#paint0_linear)"/>
    <ellipse cx="19.5" cy="35.5" rx="32.5" ry="18.5" fill="black"/>
    <ellipse cx="19.5" cy="39" rx="32.5" ry="19" fill="url(#paint1_linear)"/>
    <mask id="mask1" mask-type="alpha" maskUnits="userSpaceOnUse" x="-16" y="19" width="71" height="56">
      <ellipse cx="19.5" cy="47" rx="35.5" ry="28" fill="url(#paint2_linear)"/>
    </mask>
    <g mask="url(#mask1)">
      <ellipse cx="20" cy="24.5" rx="20" ry="17.5" fill="#C4C4C4"/>
    </g>
    <ellipse cx="36.5728" cy="10.0955" rx="4.63274" ry="6.78178" transform="rotate(-47.9258 36.5728 10.0955)" fill="white"/>
    <circle cx="24" cy="24" r="23.5" stroke="black"/>
    <circle cx="14.5" cy="18.5" r="7.5" fill="black"/>
    <circle cx="14.5" cy="18.5" r="6.13636" fill="#C4C4C4"/>
    <circle cx="15.1819" cy="19.1818" r="4.09091" fill="#848885"/>
    <circle cx="13.8182" cy="17.8182" r="4.09091" fill="#C2D1D6"/>
  </g>
  <defs>
    <linearGradient id="paint0_linear" x1="48" y1="24" x2="0" y2="0" gradientUnits="userSpaceOnUse">
      <stop stop-color="#DA2000"/>
      <stop offset="1" stop-color="#EA4F35"/>
    </linearGradient>
    <linearGradient id="paint1_linear" x1="-13" y1="20" x2="52" y2="39" gradientUnits="userSpaceOnUse">
      <stop stop-color="#B4B7B5"/>
      <stop offset="1" stop-color="#747875"/>
    </linearGradient>
    <linearGradient id="paint2_linear" x1="-16" y1="19" x2="57.6111" y2="34.9486" gradientUnits="userSpaceOnUse">
      <stop stop-color="#B4B7B5"/>
      <stop offset="1" stop-color="#747875"/>
    </linearGradient>
  </defs>
</svg>
