<svg width="18" height="18" viewBox="0 0 18 18" fill="none" xmlns="http://www.w3.org/2000/svg">
  <path d="M16 2H14V0H4V2H2C0.9 2 0 2.9 0 4V5C0 7.55 1.92 9.63 4.39 9.94C5.02 11.44 6.37 12.57 8 12.9V16H4V18H14V16H10V12.9C11.63 12.57 12.98 11.44 13.61 9.94C16.08 9.63 18 7.55 18 5V4C18 2.9 17.1 2 16 2ZM2 5V4H4V7.82C2.84 7.4 2 6.3 2 5ZM16 5C16 6.3 15.16 7.4 14 7.82V4H16V5Z" fill="url(#paint0_linear)"/>
  <defs>
    <linearGradient id="paint0_linear" x1="0" y1="0" x2="21.5832" y2="10.9142" gradientUnits="userSpaceOnUse">
      <stop stop-color="#2571F8"/>
      <stop offset="0.9999" stop-color="#68E2F8"/>
      <stop offset="1" stop-color="#68E2F8"/>
    </linearGradient>
  </defs>
</svg>